<svg width="57" height="64" viewBox="0 0 57 64" fill="none" xmlns="http://www.w3.org/2000/svg">
<path d="M28.3052 45.2133C37.7125 45.2133 45.3385 37.5872 45.3385 28.18C45.3385 18.7728 37.7125 11.1467 28.3052 11.1467C18.898 11.1467 11.272 18.7728 11.272 28.18C11.272 37.5872 18.898 45.2133 28.3052 45.2133Z" fill="#070713"/>
<mask id="mask0_2021_841" style="mask-type:alpha" maskUnits="userSpaceOnUse" x="11" y="11" width="35" height="35">
<path d="M28.3052 45.2133C37.7125 45.2133 45.3385 37.5872 45.3385 28.18C45.3385 18.7728 37.7125 11.1467 28.3052 11.1467C18.898 11.1467 11.272 18.7728 11.272 28.18C11.272 37.5872 18.898 45.2133 28.3052 45.2133Z" fill="#070713"/>
</mask>
<g mask="url(#mask0_2021_841)">
<g filter="url(#filter0_d_2021_841)">
<path fill-rule="evenodd" clip-rule="evenodd" d="M34.6295 28.6394C34.623 28.6427 34.6166 28.6461 34.6106 28.6495C34.4293 28.7405 34.2968 28.9105 34.241 29.1169L34.227 29.1776C34.1085 29.6268 33.9969 29.9789 33.8853 30.2156C33.8365 30.3127 33.725 30.3795 33.5994 30.3673C33.4739 30.3552 33.3763 30.2763 33.3484 30.1731C33.0974 29.0441 32.937 26.6403 32.8324 25.0438C32.5046 19.9267 32.2606 17.2558 30.7334 17.2558C30.1686 17.2558 29.7153 17.5836 29.3388 19.1982C28.9692 20.7644 28.7181 23.3806 28.3764 27.654C28.1742 30.2035 27.8953 33.6877 27.5257 35.7212C27.5048 35.8366 27.3932 35.9215 27.2537 35.9276H27.2468C27.1143 35.9276 27.0027 35.8487 26.9748 35.7334C26.7098 34.5861 26.4448 33.0868 26.2356 31.8788L26.2217 31.8181C25.2873 26.5249 24.8898 24.8131 23.7462 24.8131C22.66 24.8131 22.3594 26.2837 22.0114 27.9861L22.0098 27.9939C21.9953 28.063 21.98 28.1369 21.9639 28.2144C21.8643 28.6955 21.7365 29.3126 21.5984 29.7361C21.5705 29.8332 21.4729 29.8999 21.3613 29.9121C21.2497 29.9242 21.1382 29.8757 21.0824 29.7846L21.0775 29.7768C20.8115 29.3501 20.3292 28.5767 19.1856 28.5767H5.98856C5.612 28.5767 5.30518 28.9044 5.30518 29.3111C5.30518 29.7178 5.612 30.0456 5.98856 30.0456H19.1856C19.5831 30.0456 19.6947 30.1974 19.9666 30.6344C20.2247 31.0593 20.6221 31.6967 21.4798 31.6967C22.6572 31.6967 22.9924 30.0547 23.3477 28.3144L23.3487 28.3096L23.3557 28.2671C23.3762 28.167 23.3991 28.0585 23.4231 27.9454C23.4398 27.8663 23.457 27.7849 23.4742 27.7025C23.5021 27.5872 23.6137 27.5083 23.7462 27.5022C23.8787 27.5022 23.9902 27.5811 24.0181 27.6965C24.325 28.9591 24.6457 30.768 24.8758 32.0913C25.7545 37.0324 26.1101 38.7442 27.2258 38.7442C27.7558 38.7442 28.3067 38.4771 28.753 36.5164C29.1296 34.8471 29.3806 32.2612 29.7432 27.7754C29.9245 25.4687 30.1825 22.3062 30.4963 20.3698C30.5172 20.2484 30.6358 20.1634 30.7752 20.1634C30.9147 20.1634 31.0333 20.2545 31.0472 20.3759C31.2494 21.7781 31.3819 23.7145 31.4726 25.1288V25.1409C31.7864 29.9182 31.9747 32.0366 33.2508 32.1459C34.771 32.28 35.3071 30.4658 35.5202 29.6604H46.4749C46.9335 29.6604 47.3052 29.2887 47.3052 28.8302C47.3052 28.3717 46.9335 28 46.4749 28H35.4377C35.0449 28 34.7158 28.2728 34.6295 28.6394Z" fill="#FFA621"/>
</g>
</g>
<path d="M48.3201 8.29032C42.9741 2.94425 35.8659 0 28.3053 0C20.7446 0 13.6365 2.94425 8.29044 8.29032C2.94425 13.6366 0 20.7446 0 28.3053C0 41.6437 9.32496 53.1592 22.2794 55.9654L28.3053 64L34.3313 55.9653C47.2856 53.1591 56.6106 41.6437 56.6106 28.3053C56.6106 20.7446 53.6663 13.6366 48.3201 8.29032ZM28.3053 7.38943C39.7693 7.38943 49.0959 16.7161 49.0959 28.18C49.0959 39.6439 39.7693 48.9706 28.3053 48.9706C16.8413 48.9706 7.51468 39.6439 7.51468 28.18C7.51468 16.7161 16.8413 7.38943 28.3053 7.38943Z" fill="#FFA621"/>
<defs>
<filter id="filter0_d_2021_841" x="-29.6948" y="-2.7442" width="112" height="91.4883" filterUnits="userSpaceOnUse" color-interpolation-filters="sRGB">
<feFlood flood-opacity="0" result="BackgroundImageFix"/>
<feColorMatrix in="SourceAlpha" type="matrix" values="0 0 0 0 0 0 0 0 0 0 0 0 0 0 0 0 0 0 127 0" result="hardAlpha"/>
<feOffset dy="15"/>
<feGaussianBlur stdDeviation="17.5"/>
<feComposite in2="hardAlpha" operator="out"/>
<feColorMatrix type="matrix" values="0 0 0 0 1 0 0 0 0 0.651667 0 0 0 0 0.129167 0 0 0 0.2 0"/>
<feBlend mode="normal" in2="BackgroundImageFix" result="effect1_dropShadow_2021_841"/>
<feBlend mode="normal" in="SourceGraphic" in2="effect1_dropShadow_2021_841" result="shape"/>
</filter>
</defs>
</svg>
