<svg width="29" height="32" viewBox="0 0 29 32" fill="none" xmlns="http://www.w3.org/2000/svg">
<path d="M14.1524 22.6066C18.856 22.6066 22.669 18.7936 22.669 14.09C22.669 9.38639 18.856 5.57336 14.1524 5.57336C9.44877 5.57336 5.63574 9.38639 5.63574 14.09C5.63574 18.7936 9.44877 22.6066 14.1524 22.6066Z" fill="black"/>
<mask id="mask0_3129_731" style="mask-type:alpha" maskUnits="userSpaceOnUse" x="5" y="5" width="18" height="18">
<path d="M14.1524 22.6066C18.856 22.6066 22.669 18.7936 22.669 14.09C22.669 9.38639 18.856 5.57336 14.1524 5.57336C9.44877 5.57336 5.63574 9.38639 5.63574 14.09C5.63574 18.7936 9.44877 22.6066 14.1524 22.6066Z" fill="black"/>
</mask>
<g mask="url(#mask0_3129_731)">
<g filter="url(#filter0_d_3129_731)">
<path fill-rule="evenodd" clip-rule="evenodd" d="M17.3146 14.3197C17.3113 14.3214 17.3081 14.3231 17.305 14.3248C17.2144 14.3703 17.1481 14.4553 17.1202 14.5585L17.1133 14.5888C17.054 14.8134 16.9982 14.9895 16.9424 15.1078C16.918 15.1564 16.8622 15.1898 16.7995 15.1837C16.7367 15.1776 16.6879 15.1382 16.674 15.0866C16.5484 14.5221 16.4682 13.3202 16.4159 12.5219C16.2521 9.96337 16.13 8.62793 15.3665 8.62793C15.084 8.62793 14.8574 8.79182 14.6691 9.59916C14.4843 10.3822 14.3588 11.6903 14.188 13.827C14.0869 15.1018 13.9474 16.8439 13.7626 17.8606C13.7521 17.9183 13.6964 17.9608 13.6266 17.9638H13.6231C13.5569 17.9638 13.5011 17.9244 13.4872 17.8667C13.3547 17.2931 13.2222 16.5434 13.1176 15.9394L13.1106 15.9091C12.6434 13.2625 12.4447 12.4066 11.8728 12.4066C11.3298 12.4066 11.1795 13.1419 11.0055 13.9931L11.0047 13.997C10.9974 14.0315 10.9898 14.0685 10.9817 14.1072C10.9319 14.3478 10.868 14.6563 10.799 14.8681C10.785 14.9166 10.7362 14.95 10.6804 14.9561C10.6246 14.9621 10.5688 14.9379 10.5409 14.8923L10.5385 14.8884C10.4055 14.6751 10.1643 14.2884 9.59257 14.2884H2.99404C2.80576 14.2884 2.65234 14.4523 2.65234 14.6556C2.65234 14.859 2.80576 15.0228 2.99404 15.0228H9.59257C9.79131 15.0228 9.8471 15.0987 9.98308 15.3172C10.1121 15.5297 10.3108 15.8484 10.7397 15.8484C11.3284 15.8484 11.496 15.0274 11.6736 14.1572L11.6741 14.1548L11.6776 14.1336C11.6879 14.0835 11.6993 14.0293 11.7113 13.9727C11.7197 13.9332 11.7283 13.8925 11.7369 13.8513C11.7508 13.7936 11.8066 13.7542 11.8728 13.7511C11.9391 13.7511 11.9949 13.7906 12.0088 13.8483C12.1622 14.4796 12.3226 15.384 12.4377 16.0457C12.877 18.5162 13.0548 19.3721 13.6127 19.3721C13.8777 19.3721 14.1531 19.2386 14.3763 18.2582C14.5645 17.4236 14.6901 16.1306 14.8714 13.8877C14.962 12.7344 15.091 11.1531 15.2479 10.1849C15.2584 10.1242 15.3176 10.0817 15.3874 10.0817C15.4571 10.0817 15.5164 10.1273 15.5234 10.188C15.6245 10.8891 15.6907 11.8573 15.736 12.5644V12.5705C15.8929 14.9591 15.9871 16.0184 16.6251 16.073C17.3852 16.14 17.6533 15.2329 17.7599 14.8303H23.2373C23.4666 14.8303 23.6524 14.6444 23.6524 14.4151C23.6524 14.1859 23.4666 14 23.2373 14H17.7187C17.5223 14 17.3577 14.1364 17.3146 14.3197Z" fill="#FF9C16"/>
</g>
</g>
<path d="M24.1601 4.14516C21.487 1.47213 17.933 0 14.1526 0C10.3723 0 6.81825 1.47213 4.14522 4.14516C1.47213 6.81832 0 10.3723 0 14.1526C0 20.8219 4.66248 26.5796 11.1397 27.9827L14.1526 32L17.1657 27.9827C23.6428 26.5795 28.3053 20.8219 28.3053 14.1526C28.3053 10.3723 26.8332 6.81832 24.1601 4.14516V4.14516ZM14.1526 3.69472C19.8846 3.69472 24.5479 8.35807 24.5479 14.09C24.5479 19.822 19.8846 24.4853 14.1526 24.4853C8.42063 24.4853 3.75734 19.822 3.75734 14.09C3.75734 8.35807 8.42063 3.69472 14.1526 3.69472V3.69472Z" fill="#FF9C16"/>
<defs>
<filter id="filter0_d_3129_731" x="-32.3477" y="-11.3721" width="91" height="80.7442" filterUnits="userSpaceOnUse" color-interpolation-filters="sRGB">
<feFlood flood-opacity="0" result="BackgroundImageFix"/>
<feColorMatrix in="SourceAlpha" type="matrix" values="0 0 0 0 0 0 0 0 0 0 0 0 0 0 0 0 0 0 127 0" result="hardAlpha"/>
<feOffset dy="15"/>
<feGaussianBlur stdDeviation="17.5"/>
<feComposite in2="hardAlpha" operator="out"/>
<feColorMatrix type="matrix" values="0 0 0 0 1 0 0 0 0 0.651667 0 0 0 0 0.129167 0 0 0 0.2 0"/>
<feBlend mode="normal" in2="BackgroundImageFix" result="effect1_dropShadow_3129_731"/>
<feBlend mode="normal" in="SourceGraphic" in2="effect1_dropShadow_3129_731" result="shape"/>
</filter>
</defs>
</svg>
