<svg width="54" height="61" viewBox="0 0 54 61" fill="none" xmlns="http://www.w3.org/2000/svg">
<path d="M26.978 43.0939C35.9442 43.0939 43.2128 35.8253 43.2128 26.859C43.2128 17.8928 35.9442 10.6242 26.978 10.6242C18.0117 10.6242 10.7432 17.8928 10.7432 26.859C10.7432 35.8253 18.0117 43.0939 26.978 43.0939Z" fill="black"/>
<mask id="mask0_3345_4258" style="mask-type:alpha" maskUnits="userSpaceOnUse" x="10" y="10" width="34" height="34">
<path d="M26.978 43.0939C35.9442 43.0939 43.2128 35.8253 43.2128 26.859C43.2128 17.8928 35.9442 10.6242 26.978 10.6242C18.0117 10.6242 10.7432 17.8928 10.7432 26.859C10.7432 35.8253 18.0117 43.0939 26.978 43.0939Z" fill="black"/>
</mask>
<g mask="url(#mask0_3345_4258)">
<g filter="url(#filter0_d_3345_4258)">
<path fill-rule="evenodd" clip-rule="evenodd" d="M33.0064 27.2966C32.9999 27.2999 32.9936 27.3033 32.9876 27.3066C32.8148 27.3934 32.6885 27.5554 32.6353 27.7521L32.6221 27.81C32.5091 28.2381 32.4027 28.5737 32.2964 28.7993C32.2499 28.8919 32.1435 28.9555 32.0239 28.944C31.9042 28.9324 31.8112 28.8572 31.7846 28.7588C31.5453 27.6827 31.3925 25.3916 31.2928 23.87C30.9804 18.9927 30.7478 16.447 29.2922 16.447C28.7538 16.447 28.3218 16.7594 27.9629 18.2984C27.6107 19.7911 27.3714 22.2847 27.0457 26.3578C26.853 28.7878 26.5871 32.1087 26.2348 34.0469C26.2149 34.1568 26.1086 34.2378 25.9756 34.2436H25.969C25.8427 34.2436 25.7364 34.1684 25.7098 34.0585C25.4572 32.965 25.2046 31.5359 25.0053 30.3846L24.992 30.3267C24.1013 25.2817 23.7225 23.6501 22.6325 23.6501C21.5972 23.6501 21.3107 25.0517 20.979 26.6744L20.9775 26.6818C20.9637 26.7476 20.9491 26.8181 20.9338 26.892C20.8388 27.3505 20.717 27.9386 20.5854 28.3423C20.5588 28.4348 20.4657 28.4985 20.3594 28.51C20.2531 28.5216 20.1467 28.4753 20.0935 28.3885L20.0889 28.3811C19.8353 27.9744 19.3757 27.2372 18.2857 27.2372H5.70726C5.34835 27.2372 5.05591 27.5496 5.05591 27.9373C5.05591 28.3249 5.34835 28.6373 5.70726 28.6373H18.2857C18.6646 28.6373 18.7709 28.782 19.0301 29.1985C19.276 29.6035 19.6549 30.211 20.4724 30.211C21.5946 30.211 21.9141 28.646 22.2527 26.9873L22.2536 26.9826L22.2603 26.9421C22.2798 26.8468 22.3017 26.7434 22.3245 26.6355C22.3405 26.5602 22.3569 26.4826 22.3733 26.4041C22.3999 26.2942 22.5062 26.2189 22.6325 26.2132C22.7588 26.2132 22.8651 26.2884 22.8917 26.3983C23.1841 27.6017 23.4899 29.3258 23.7092 30.5871C24.5467 35.2966 24.8856 36.9281 25.949 36.9281C26.4542 36.9281 26.9792 36.6736 27.4046 34.8048C27.7635 33.2138 28.0028 30.7491 28.3484 26.4735C28.5212 24.275 28.7671 21.2607 29.0662 19.415C29.0862 19.2993 29.1991 19.2183 29.3321 19.2183C29.465 19.2183 29.578 19.3051 29.5913 19.4208C29.784 20.7573 29.9103 22.6029 29.9967 23.951V23.9625C30.2958 28.5158 30.4753 30.535 31.6916 30.6392C33.1405 30.767 33.6516 29.0377 33.8546 28.2701H44.2965C44.7335 28.2701 45.0878 27.9158 45.0878 27.4788C45.0878 27.0418 44.7335 26.6875 44.2965 26.6875H33.7766C33.4023 26.6875 33.0886 26.9474 33.0064 27.2966Z" fill="#FF9C16"/>
</g>
</g>
<path d="M46.0551 7.90171C40.9596 2.80624 34.1847 0 26.9785 0C19.7722 0 12.9973 2.80624 7.90183 7.90171C2.80624 12.9974 0 19.7722 0 26.9785C0 39.6917 8.88785 50.6674 21.235 53.3421L26.9785 61L32.722 53.3419C45.0691 50.6672 53.9569 39.6917 53.9569 26.9785C53.9569 19.7722 51.1507 12.9974 46.0551 7.90171V7.90171ZM26.9785 7.04305C37.9051 7.04305 46.7945 15.9326 46.7945 26.8591C46.7945 37.7856 37.9051 46.6751 26.9785 46.6751C16.0518 46.6751 7.16243 37.7856 7.16243 26.8591C7.16243 15.9326 16.0518 7.04305 26.9785 7.04305V7.04305Z" fill="#FF9C16"/>
<defs>
<filter id="filter0_d_3345_4258" x="-29.9441" y="-3.55298" width="110.032" height="90.4811" filterUnits="userSpaceOnUse" color-interpolation-filters="sRGB">
<feFlood flood-opacity="0" result="BackgroundImageFix"/>
<feColorMatrix in="SourceAlpha" type="matrix" values="0 0 0 0 0 0 0 0 0 0 0 0 0 0 0 0 0 0 127 0" result="hardAlpha"/>
<feOffset dy="15"/>
<feGaussianBlur stdDeviation="17.5"/>
<feComposite in2="hardAlpha" operator="out"/>
<feColorMatrix type="matrix" values="0 0 0 0 1 0 0 0 0 0.651667 0 0 0 0 0.129167 0 0 0 0.2 0"/>
<feBlend mode="normal" in2="BackgroundImageFix" result="effect1_dropShadow_3345_4258"/>
<feBlend mode="normal" in="SourceGraphic" in2="effect1_dropShadow_3345_4258" result="shape"/>
</filter>
</defs>
</svg>
