<svg width="256" height="256" viewBox="0 0 256 256" fill="none" xmlns="http://www.w3.org/2000/svg">
<path d="M255.684 145.934C256.99 141.234 254.117 136.316 249.505 135.159C247.068 134.508 245.066 135.087 243.848 135.738C241.585 136.823 239.931 138.847 239.235 141.306L239.061 142.029C237.581 147.381 236.189 151.575 234.796 154.395C234.187 155.553 232.795 156.348 231.228 156.203C229.662 156.059 228.443 155.119 228.095 153.889C224.962 140.438 222.96 111.801 221.655 92.7819C217.564 31.8192 214.518 0 195.458 0C188.408 0 182.751 3.90508 178.052 23.1412C173.439 41.7989 170.306 72.9672 166.041 123.878C163.517 154.251 160.036 195.76 155.423 219.986C155.162 221.36 153.77 222.373 152.029 222.445H151.942C150.289 222.445 148.896 221.505 148.548 220.131C145.241 206.463 141.934 188.601 139.323 174.21L139.149 173.487C127.486 110.427 122.525 90.0339 108.252 90.0339C94.6753 90.0339 90.9329 107.607 86.5813 127.928C85.2759 133.858 83.4482 142.825 81.4464 148.682C81.0983 149.84 79.8799 150.635 78.4874 150.78C77.0949 150.924 75.7023 150.346 75.0061 149.261C71.6989 144.199 65.6937 134.87 51.3335 134.87H8.52911C3.8294 134.87 0 138.775 0 143.62C0 148.466 3.8294 152.371 8.52911 152.371H51.3335C56.2943 152.371 57.6868 154.179 61.081 159.385C64.3012 164.447 69.262 172.041 79.9669 172.041C94.6753 172.041 98.8528 152.443 103.291 131.688L103.378 131.182C103.814 129.157 104.336 126.843 104.858 124.456C105.206 123.082 106.599 122.142 108.252 122.07C109.906 122.07 111.298 123.01 111.646 124.384C115.476 139.426 119.479 160.976 122.351 176.741C133.317 235.607 137.756 256 151.681 256C158.296 256 165.171 252.818 170.741 229.46C175.441 209.573 178.574 178.766 183.1 125.324C185.362 97.8441 188.583 60.1672 192.499 37.0983C192.76 35.652 194.24 34.6395 195.98 34.6395C197.721 34.6395 199.2 35.7243 199.374 37.1706C201.898 53.8757 203.552 76.9446 204.683 93.7943V93.939C208.6 150.852 210.95 176.09 226.877 177.392C246.633 179.055 253.073 155.553 255.51 146.658L255.684 145.934Z" fill="#FFA621"/>
</svg>
